# xmcd CD database file
# Copyright (C) 1993-1998 Ti Kan
# 
# Track frame offsets:
#     150
#     12855
#     23275
#     35752
#     49167
#     61455
#     73725
#     86105
#     97227
#     110685
#     123585
#     136765
#     148247
#     158305
#     173222
#     190312
# 
# Disc length: 2745 seconds
# 
# Revision: 1
# Processed by: cddbd v1.4b41PL1 Copyright (c) Steve Scherf et al.
# Submitted via: DiscPlay 4.0.4
# 
DISCID=e10ab710
DTITLE=Johnny "Guitar" Watson - 3 Hours Past Midnight
DYEAR=1900
DGENRE=
TTITLE0=Hot Little Mama
TTITLE1=Ruben
TTITLE2=I Love To Love You
TTITLE3=Someone Cares For Me
TTITLE4=Too Tired
TTITLE5=Oh Baby
TTITLE6=The Bear
TTITLE7=One More Kiss
TTITLE8=Those Lonely Lonely Nights
TTITLE9=She Moves Me
TTITLE10=Give A Little
TTITLE11=Ain't Gonna Hush
TTITLE12=Motor Head Baby
TTITLE13=I'm Gonna Hit That Highway
TTITLE14=Love Me Baby
TTITLE15=Three Hours Past Midnight
EXTD=
EXTT0=
EXTT1=
EXTT2=
EXTT3=
EXTT4=
EXTT5=
EXTT6=
EXTT7=
EXTT8=
EXTT9=
EXTT10=
EXTT11=
EXTT12=
EXTT13=
EXTT14=
EXTT15=
PLAYORDER=
